<?xml version="1.0" standalone="no"?>
<!DOCTYPE svg PUBLIC "-//W3C//DTD SVG 20010904//EN"
 "http://www.w3.org/TR/2001/REC-SVG-20010904/DTD/svg10.dtd">
<svg version="1.0" xmlns="http://www.w3.org/2000/svg"
 width="500.000000pt" height="500.000000pt" viewBox="0 0 500.000000 500.000000"
 preserveAspectRatio="xMidYMid meet">

<g transform="translate(0.000000,500.000000) scale(0.100000,-0.100000)"
fill="#000000" stroke="none">
<path d="M0 2500 l0 -2500 2500 0 2500 0 0 2500 0 2500 -2500 0 -2500 0 0
-2500z m4930 5 l0 -2435 -2435 0 -2435 0 0 2435 0 2435 2435 0 2435 0 0 -2435z"/>
<path d="M2470 3587 c0 -37 -34 -121 -62 -153 -64 -73 -162 -108 -335 -120
l-93 -7 0 -93 0 -94 218 -2 217 -3 0 -700 0 -700 -217 -3 -218 -2 0 -105 0
-105 570 0 570 0 0 105 0 105 -215 0 -215 0 0 945 0 945 -110 0 c-84 0 -110
-3 -110 -13z"/>
</g>
</svg>
