<?xml version="1.0" standalone="no"?>
<!DOCTYPE svg PUBLIC "-//W3C//DTD SVG 20010904//EN"
 "http://www.w3.org/TR/2001/REC-SVG-20010904/DTD/svg10.dtd">
<svg version="1.0" xmlns="http://www.w3.org/2000/svg"
 width="500.000000pt" height="500.000000pt" viewBox="0 0 500.000000 500.000000"
 preserveAspectRatio="xMidYMid meet">

<g transform="translate(0.000000,500.000000) scale(0.100000,-0.100000)"
fill="#000000" stroke="none">
<path d="M0 2500 l0 -2500 2500 0 2500 0 0 2500 0 2500 -2500 0 -2500 0 0
-2500z m4930 5 l0 -2435 -2435 0 -2435 0 0 2435 0 2435 2435 0 2435 0 0 -2435z"/>
<path d="M2395 3614 c-128 -14 -329 -64 -427 -106 l-48 -20 0 -149 c0 -82 3
-149 6 -149 3 0 31 16 62 35 143 88 341 145 507 145 194 0 312 -57 374 -180
74 -150 35 -370 -99 -550 -126 -169 -352 -393 -702 -693 l-198 -170 0 -148 0
-149 705 0 705 0 0 120 0 120 -557 2 -557 3 144 125 c584 506 761 704 843 937
26 75 31 107 35 212 3 78 0 145 -8 180 -45 206 -216 364 -449 416 -74 16 -262
27 -336 19z"/>
</g>
</svg>
