<?xml version="1.0" standalone="no"?>
<!DOCTYPE svg PUBLIC "-//W3C//DTD SVG 20010904//EN"
 "http://www.w3.org/TR/2001/REC-SVG-20010904/DTD/svg10.dtd">
<svg version="1.0" xmlns="http://www.w3.org/2000/svg"
 width="500.000000pt" height="500.000000pt" viewBox="0 0 500.000000 500.000000"
 preserveAspectRatio="xMidYMid meet">

<g transform="translate(0.000000,500.000000) scale(0.100000,-0.100000)"
fill="#000000" stroke="none">
<path d="M0 2500 l0 -2500 2500 0 2500 0 0 2500 0 2500 -2500 0 -2500 0 0
-2500z m4930 5 l0 -2435 -2435 0 -2435 0 0 2435 0 2435 2435 0 2435 0 0 -2435z"/>
<path d="M2398 3659 c-98 -12 -282 -59 -375 -95 l-73 -28 0 -148 c0 -81 4
-148 9 -148 4 0 39 18 77 40 254 145 580 184 763 90 97 -49 140 -125 141 -246
0 -138 -60 -228 -192 -289 -67 -31 -127 -42 -263 -51 l-105 -7 0 -112 0 -112
148 -6 c160 -6 222 -19 302 -63 86 -47 133 -120 151 -235 20 -129 -5 -250 -71
-342 -51 -71 -106 -109 -205 -142 -192 -65 -428 -33 -682 90 -62 30 -117 55
-123 55 -7 0 -10 -49 -8 -147 l3 -146 65 -24 c314 -118 662 -136 898 -47 192
72 343 238 392 429 22 87 27 248 9 324 -27 118 -129 251 -234 303 -56 28 -167
68 -190 68 -35 0 -11 27 34 39 118 30 258 148 317 267 61 122 58 273 -7 402
-62 125 -218 231 -391 266 -98 20 -290 28 -390 15z"/>
</g>
</svg>
