<?xml version="1.0" standalone="no"?>
<!DOCTYPE svg PUBLIC "-//W3C//DTD SVG 20010904//EN"
 "http://www.w3.org/TR/2001/REC-SVG-20010904/DTD/svg10.dtd">
<svg version="1.0" xmlns="http://www.w3.org/2000/svg"
 width="500.000000pt" height="500.000000pt" viewBox="0 0 500.000000 500.000000"
 preserveAspectRatio="xMidYMid meet">

<g transform="translate(0.000000,500.000000) scale(0.100000,-0.100000)"
fill="#000000" stroke="none">
<path d="M0 2500 l0 -2500 2500 0 2500 0 0 2500 0 2500 -2500 0 -2500 0 0
-2500z m4930 5 l0 -2435 -2435 0 -2435 0 0 2435 0 2435 2435 0 2435 0 0 -2435z"/>
<path d="M2163 3022 l-503 -587 0 -162 0 -163 500 0 500 0 0 -295 0 -295 135
0 135 0 0 295 0 295 155 0 155 0 0 115 0 115 -155 0 -155 0 0 635 0 635 -132
-1 -133 0 -502 -587z m494 -679 c-2 -2 -182 -2 -401 -1 l-396 3 397 462 398
462 3 -461 c1 -254 1 -463 -1 -465z"/>
</g>
</svg>
