<?xml version="1.0" standalone="no"?>
<!DOCTYPE svg PUBLIC "-//W3C//DTD SVG 20010904//EN"
 "http://www.w3.org/TR/2001/REC-SVG-20010904/DTD/svg10.dtd">
<svg version="1.0" xmlns="http://www.w3.org/2000/svg"
 width="500.000000pt" height="500.000000pt" viewBox="0 0 500.000000 500.000000"
 preserveAspectRatio="xMidYMid meet">

<g transform="translate(0.000000,500.000000) scale(0.100000,-0.100000)"
fill="#000000" stroke="none">
<path d="M0 2500 l0 -2500 2500 0 2500 0 0 2500 0 2500 -2500 0 -2500 0 0
-2500z m4930 5 l0 -2435 -2435 0 -2435 0 0 2435 0 2435 2435 0 2435 0 0 -2435z"/>
<path d="M2000 3171 l0 -539 33 8 c133 36 461 53 598 31 235 -38 359 -170 359
-381 0 -192 -84 -347 -225 -415 -198 -96 -529 -55 -795 99 -25 14 -48 26 -53
26 -4 0 -6 -69 -5 -152 l3 -153 112 -38 c281 -94 603 -104 815 -24 295 112
466 408 428 744 -22 196 -93 320 -243 420 -140 94 -298 127 -582 121 l-170 -3
0 275 0 275 493 3 492 2 0 120 0 120 -630 0 -630 0 0 -539z"/>
</g>
</svg>
