<?xml version="1.0" standalone="no"?>
<!DOCTYPE svg PUBLIC "-//W3C//DTD SVG 20010904//EN"
 "http://www.w3.org/TR/2001/REC-SVG-20010904/DTD/svg10.dtd">
<svg version="1.0" xmlns="http://www.w3.org/2000/svg"
 width="500.000000pt" height="500.000000pt" viewBox="0 0 500.000000 500.000000"
 preserveAspectRatio="xMidYMid meet">

<g transform="translate(0.000000,500.000000) scale(0.100000,-0.100000)"
fill="#000000" stroke="none">
<path d="M0 2500 l0 -2500 2500 0 2500 0 0 2500 0 2500 -2500 0 -2500 0 0
-2500z m4930 5 l0 -2435 -2435 0 -2435 0 0 2435 0 2435 2435 0 2435 0 0 -2435z"/>
<path d="M2612 3574 c-303 -51 -533 -222 -671 -500 -91 -184 -132 -388 -134
-669 -2 -305 35 -475 141 -657 83 -141 209 -243 367 -295 73 -25 94 -27 240
-27 148 0 166 2 240 26 114 39 198 92 285 178 144 143 200 287 200 513 0 207
-51 349 -164 461 -116 114 -238 169 -419 187 -191 19 -338 -6 -507 -89 -41
-20 -78 -38 -82 -40 -14 -6 -8 62 12 148 44 183 157 353 294 442 158 102 426
127 611 57 28 -10 51 -19 53 -19 1 0 1 62 0 138 l-3 137 -55 12 c-76 15 -307
14 -408 -3z m16 -1014 c110 -14 176 -40 238 -94 98 -86 143 -222 130 -392 -21
-274 -171 -424 -424 -424 -51 0 -111 7 -143 16 -111 33 -209 119 -267 236 -50
102 -63 173 -69 371 l-5 177 75 35 c90 42 167 64 262 74 103 12 113 12 203 1z"/>
</g>
</svg>
