<?xml version="1.0" standalone="no"?>
<!DOCTYPE svg PUBLIC "-//W3C//DTD SVG 20010904//EN"
 "http://www.w3.org/TR/2001/REC-SVG-20010904/DTD/svg10.dtd">
<svg version="1.0" xmlns="http://www.w3.org/2000/svg"
 width="500.000000pt" height="500.000000pt" viewBox="0 0 500.000000 500.000000"
 preserveAspectRatio="xMidYMid meet">

<g transform="translate(0.000000,500.000000) scale(0.100000,-0.100000)"
fill="#000000" stroke="none">
<path d="M0 2500 l0 -2500 2500 0 2500 0 0 2500 0 2500 -2500 0 -2500 0 0
-2500z m4930 5 l0 -2435 -2435 0 -2435 0 0 2435 0 2435 2435 0 2435 0 0 -2435z"/>
<path d="M1950 3480 l0 -120 590 0 c325 0 590 -4 590 -8 0 -5 -224 -420 -499
-923 l-498 -914 145 -3 c80 -1 149 1 154 6 5 5 220 406 478 891 l470 882 0
155 0 154 -715 0 -715 0 0 -120z"/>
</g>
</svg>
