<?xml version="1.0" standalone="no"?>
<!DOCTYPE svg PUBLIC "-//W3C//DTD SVG 20010904//EN"
 "http://www.w3.org/TR/2001/REC-SVG-20010904/DTD/svg10.dtd">
<svg version="1.0" xmlns="http://www.w3.org/2000/svg"
 width="500.000000pt" height="500.000000pt" viewBox="0 0 500.000000 500.000000"
 preserveAspectRatio="xMidYMid meet">

<g transform="translate(0.000000,500.000000) scale(0.100000,-0.100000)"
fill="#000000" stroke="none">
<path d="M0 2500 l0 -2500 2500 0 2500 0 0 2500 0 2500 -2500 0 -2500 0 0
-2500z m4930 5 l0 -2435 -2435 0 -2435 0 0 2435 0 2435 2435 0 2435 0 0 -2435z"/>
<path d="M2428 3680 c-152 -26 -274 -86 -374 -185 -107 -105 -154 -214 -154
-355 0 -178 70 -296 241 -409 l89 -59 -64 -37 c-179 -104 -286 -246 -315 -416
-15 -88 -14 -125 5 -217 25 -122 65 -195 158 -288 67 -67 97 -89 176 -127 129
-62 220 -80 400 -80 171 1 256 19 390 85 112 56 240 180 288 280 100 205 74
444 -62 595 -49 54 -147 124 -228 164 -27 13 -48 27 -48 31 0 4 21 19 48 32
108 55 214 175 262 296 28 69 38 206 20 281 -47 204 -232 356 -489 404 -87 16
-262 18 -343 5z m342 -226 c164 -61 242 -188 220 -357 -18 -143 -70 -231 -193
-328 l-48 -38 -85 30 c-297 105 -433 200 -470 327 -44 152 37 303 195 363 104
39 282 40 381 3z m-205 -908 c283 -101 401 -178 451 -296 8 -19 18 -69 21
-110 18 -239 -137 -404 -401 -425 -205 -17 -390 80 -468 244 -55 115 -51 284
10 409 40 83 183 229 227 231 6 1 78 -23 160 -53z"/>
</g>
</svg>
